<svg xmlns="http://www.w3.org/2000/svg" xmlns:xlink="http://www.w3.org/1999/xlink" width="1000" zoomAndPan="magnify" viewBox="0 0 750 749.999995" height="1000" preserveAspectRatio="xMidYMid meet" version="1.0"><path fill="#763f0f" d="M 674.832031 357.214844 C 674.832031 375.414062 671.839844 393.246094 668.460938 411.042969 C 663.058594 438.59375 654.597656 465.167969 643.078125 490.773438 C 631.527344 516.75 616.691406 540.695312 598.566406 562.597656 C 590.960938 571.773438 582.78125 580.40625 574.03125 588.5 C 557.515625 603.683594 539.6875 617.128906 520.550781 628.835938 C 510.183594 635.332031 499.515625 641.285156 488.546875 646.703125 C 465.257812 658.210938 440.988281 667.3125 415.355469 672.136719 C 401.929688 674.628906 388.394531 676.152344 374.75 676.710938 C 365.746094 677.136719 356.75 677.050781 347.757812 676.457031 C 338.765625 675.859375 329.832031 674.757812 320.964844 673.152344 C 312.097656 671.542969 303.347656 669.4375 294.71875 666.835938 C 286.089844 664.238281 277.636719 661.15625 269.355469 657.597656 C 249.171875 649.152344 229.882812 639.011719 211.484375 627.171875 C 195.402344 616.964844 180.257812 605.515625 166.054688 592.824219 C 150.988281 579.28125 137.644531 564.21875 126.015625 547.628906 C 117.992188 536.21875 110.847656 524.277344 104.582031 511.8125 C 98.320312 499.347656 93.003906 486.488281 88.640625 473.238281 C 82.726562 455.113281 78.84375 436.558594 76.996094 417.582031 C 75.601562 403.992188 75.144531 390.375 75.632812 376.726562 C 76.980469 341.460938 82.402344 306.863281 93.929688 273.394531 C 102.847656 247.496094 114.722656 223.09375 131.308594 201.167969 C 142.949219 185.671875 156.480469 172.046875 171.894531 160.296875 C 182.65625 152.128906 193.152344 143.664062 204.53125 136.277344 C 221.714844 125.214844 239.644531 115.652344 259.226562 109.445312 C 263 108.25 266.875 107.566406 270.734375 106.734375 C 271.441406 106.59375 272.144531 106.59375 272.847656 106.734375 C 277.210938 107.671875 281.320312 109.265625 285.175781 111.511719 C 289.03125 113.761719 292.441406 116.554688 295.40625 119.894531 C 298.265625 123.070312 301.210938 126.148438 304.003906 129.375 C 309.210938 135.378906 315.949219 138.890625 323.199219 141.75 C 336.398438 146.820312 350.046875 149.824219 364.15625 150.765625 C 372.472656 151.398438 380.789062 151.582031 389.105469 152.546875 C 401.832031 154.042969 411.5625 159.949219 417.648438 171.359375 C 419.964844 175.539062 421.734375 179.9375 422.949219 184.558594 C 424.164062 189.179688 424.792969 193.878906 424.835938 198.65625 C 424.636719 203.558594 424.886719 208.4375 425.585938 213.292969 C 426.683594 219.449219 425.402344 225.636719 424.335938 231.757812 C 423.308594 238.027344 421.8125 244.183594 419.847656 250.222656 C 417.433594 257.375 417.800781 264.59375 418.699219 271.847656 C 418.734375 272.410156 418.929688 272.914062 419.28125 273.351562 C 419.636719 273.792969 420.085938 274.089844 420.628906 274.242188 C 426.316406 276.1875 431.988281 278.21875 437.710938 280.046875 C 440.339844 280.878906 442.703125 279.414062 444.832031 278.203125 C 448.574219 276.121094 452.214844 273.910156 456.140625 272.214844 C 462.101562 269.464844 468.300781 267.464844 474.742188 266.207031 C 481.183594 264.949219 487.679688 264.472656 494.234375 264.777344 C 507.722656 265.382812 520.746094 268.152344 533.308594 273.09375 C 541.292969 276.117188 549.03125 279.679688 556.515625 283.789062 C 559.585938 285.460938 562.742188 286.960938 565.980469 288.28125 C 567.101562 288.789062 568.265625 289.175781 569.464844 289.449219 C 570.667969 289.722656 571.886719 289.871094 573.117188 289.894531 C 574.347656 289.921875 575.570312 289.824219 576.785156 289.601562 C 577.996094 289.378906 579.175781 289.039062 580.316406 288.582031 C 589.515625 285.121094 598.613281 281.394531 607.980469 278.402344 C 619.625 274.707031 631.269531 273.976562 642.796875 278.269531 C 650.296875 281.0625 655.472656 286.867188 659.097656 293.703125 C 667.015625 308.675781 672.570312 324.476562 674.070312 341.480469 C 674.589844 346.710938 674.847656 351.957031 674.832031 357.214844 Z M 410.179688 201.484375 C 410.78125 195.164062 408.867188 187.792969 405.773438 180.625 C 405.40625 179.6875 404.976562 178.785156 404.480469 177.910156 C 403.984375 177.035156 403.429688 176.199219 402.816406 175.402344 C 402.207031 174.609375 401.539062 173.859375 400.820312 173.15625 C 400.101562 172.453125 399.339844 171.804688 398.527344 171.210938 C 397.71875 170.617188 396.871094 170.082031 395.984375 169.605469 C 395.101562 169.128906 394.183594 168.71875 393.242188 168.375 C 392.296875 168.027344 391.335938 167.75 390.351562 167.539062 C 389.371094 167.328125 388.378906 167.1875 387.375 167.117188 C 379.742188 166.203125 372.054688 165.851562 364.371094 165.636719 C 350.144531 165.085938 336.28125 162.539062 322.785156 158.003906 C 319.511719 156.980469 316.332031 155.71875 313.242188 154.222656 C 310.15625 152.726562 307.199219 151.007812 304.371094 149.066406 C 301.542969 147.128906 298.871094 144.988281 296.363281 142.648438 C 293.855469 140.3125 291.535156 137.800781 289.398438 135.113281 C 284.144531 128.558594 277.988281 123.136719 269.4375 121.023438 C 268.128906 120.605469 266.808594 120.566406 265.480469 120.90625 C 255.804688 123.652344 246.46875 127.269531 237.46875 131.753906 C 221.941406 139.53125 207.152344 148.527344 193.105469 158.734375 C 178.515625 169.53125 164.042969 180.457031 153.53125 195.746094 C 149.1875 202.066406 144.066406 207.871094 139.757812 214.257812 C 125.632812 235.511719 114.785156 258.324219 107.21875 282.691406 C 98.410156 310.804688 93.476562 339.582031 92.414062 369.023438 C 91.960938 379.605469 92.027344 390.207031 92.617188 400.828125 C 93.253906 412.84375 94.652344 424.773438 96.808594 436.609375 C 99.253906 449.46875 102.679688 462.054688 107.085938 474.378906 C 111.492188 486.703125 116.828125 498.609375 123.089844 510.101562 C 129.265625 521.824219 136.359375 532.960938 144.367188 543.515625 C 152.375 554.074219 161.191406 563.90625 170.8125 573.011719 C 179.4375 581.121094 188.46875 588.742188 197.910156 595.882812 C 212.835938 607.191406 228.550781 617.273438 245.050781 626.125 C 262.140625 635.464844 280.050781 642.800781 298.78125 648.132812 C 308.746094 650.957031 318.847656 653.136719 329.09375 654.667969 C 339.335938 656.203125 349.632812 657.078125 359.988281 657.292969 C 370.34375 657.511719 380.667969 657.070312 390.96875 655.96875 C 401.265625 654.867188 411.453125 653.113281 421.527344 650.710938 C 449.457031 644.058594 475.273438 632.261719 499.972656 617.925781 C 518.949219 607.050781 536.691406 594.441406 553.203125 580.097656 C 562.226562 572.222656 570.6875 563.78125 578.585938 554.78125 C 587.726562 544.125 596.042969 532.863281 603.539062 520.996094 C 612.402344 507.363281 620.164062 493.128906 626.828125 478.296875 C 636.175781 457.121094 642.878906 435.046875 648.917969 412.738281 C 653.078125 397.597656 655.617188 382.1875 656.535156 366.511719 C 656.90625 359.148438 656.800781 351.789062 656.21875 344.4375 C 655.328125 334.378906 653 324.667969 649.234375 315.296875 C 647.304688 310.304688 645.671875 305.164062 642.464844 300.742188 C 641.71875 299.625 640.851562 298.613281 639.859375 297.707031 C 638.867188 296.804688 637.777344 296.03125 636.597656 295.394531 C 635.414062 294.757812 634.171875 294.273438 632.871094 293.945312 C 631.570312 293.613281 630.25 293.445312 628.90625 293.4375 C 620.40625 293.289062 612.207031 294.78125 604.304688 297.914062 C 596.984375 300.65625 589.800781 303.835938 582.148438 305.597656 C 578.558594 306.589844 574.910156 306.914062 571.203125 306.578125 C 564.476562 305.605469 558.28125 303.238281 552.621094 299.476562 C 542.867188 293.300781 532.601562 288.132812 521.832031 283.972656 C 514.113281 280.878906 505.980469 279.898438 497.761719 279.25 C 491.441406 278.765625 485.152344 278.167969 478.847656 279.5 C 473.503906 280.527344 468.316406 282.066406 463.277344 284.121094 C 458.238281 286.171875 453.449219 288.695312 448.90625 291.691406 C 444.347656 294.785156 439.308594 296.914062 433.734375 295.019531 C 427.449219 292.855469 421.144531 290.726562 414.90625 288.363281 C 413.511719 287.898438 412.210938 287.246094 411 286.414062 C 409.789062 285.582031 408.714844 284.601562 407.777344 283.46875 C 406.839844 282.339844 406.074219 281.101562 405.484375 279.757812 C 404.890625 278.410156 404.496094 277.011719 404.292969 275.558594 C 403.425781 271.164062 403.0625 266.730469 403.210938 262.257812 C 403.355469 257.785156 404.003906 253.382812 405.15625 249.058594 C 407.164062 242.558594 408.753906 235.960938 409.933594 229.261719 C 410.695312 224.273438 411.976562 219.28125 410.878906 214.292969 C 410.097656 210.054688 409.863281 205.785156 410.179688 201.484375 Z M 410.179688 201.484375 " fill-opacity="1" fill-rule="nonzero"/><path fill="#763f0f" d="M 530.113281 197.109375 C 530.160156 199.070312 529.875 200.988281 529.265625 202.851562 C 528.652344 204.71875 527.75 206.429688 526.554688 207.988281 C 522.363281 214.027344 517.375 219.199219 510.351562 221.976562 C 500.722656 225.785156 491.757812 221.976562 487.714844 212.460938 C 487.195312 210.894531 487.117188 209.300781 487.480469 207.6875 C 488.960938 196.292969 490.476562 184.898438 491.921875 173.488281 C 492.539062 168.5 492.804688 168.296875 497.660156 169.378906 C 503.332031 170.660156 509.007812 171.925781 514.761719 172.707031 C 515.769531 172.773438 516.628906 173.164062 517.339844 173.886719 C 521.332031 178.378906 525.40625 182.820312 528.085938 188.292969 C 529.542969 191.050781 530.21875 193.992188 530.113281 197.109375 Z M 530.113281 197.109375 " fill-opacity="1" fill-rule="nonzero"/><path fill="#763f0f" d="M 594.023438 198.523438 C 594.132812 192.25 595.363281 186.207031 597.71875 180.390625 C 598.25 179.011719 598.816406 177.628906 599.246094 176.214844 C 600.277344 172.890625 603.289062 171.226562 605.550781 169.046875 C 606.152344 168.449219 606.734375 168.964844 607.214844 169.429688 C 613.238281 175.183594 619.691406 180.441406 625.945312 185.964844 C 626.667969 186.472656 627.117188 187.160156 627.292969 188.027344 C 627.941406 195.011719 629.636719 201.917969 629.421875 209.003906 C 629.40625 210.445312 629.078125 211.816406 628.441406 213.113281 C 628.042969 214.023438 627.523438 214.855469 626.875 215.609375 C 626.230469 216.367188 625.488281 217.011719 624.648438 217.542969 C 623.808594 218.078125 622.910156 218.476562 621.953125 218.742188 C 620.996094 219.007812 620.019531 219.125 619.027344 219.101562 C 614.726562 219.113281 610.527344 218.464844 606.433594 217.152344 C 598.066406 214.375 594.023438 208.222656 594.023438 198.523438 Z M 594.023438 198.523438 " fill-opacity="1" fill-rule="nonzero"/><path fill="#763f0f" d="M 389.222656 91.066406 C 389.171875 93.890625 388.539062 96.582031 387.324219 99.132812 C 385.214844 104.4375 382.082031 109.042969 377.925781 112.957031 C 377.605469 113.265625 377.265625 113.554688 376.90625 113.820312 C 376.550781 114.089844 376.179688 114.332031 375.789062 114.554688 C 375.402344 114.777344 375.003906 114.976562 374.59375 115.152344 C 374.183594 115.328125 373.761719 115.476562 373.335938 115.601562 C 372.90625 115.722656 372.472656 115.820312 372.03125 115.894531 C 371.589844 115.964844 371.144531 116.011719 370.699219 116.027344 C 370.253906 116.046875 369.808594 116.039062 369.363281 116.003906 C 368.917969 115.96875 368.476562 115.90625 368.039062 115.816406 C 367.601562 115.726562 367.171875 115.613281 366.746094 115.472656 C 366.324219 115.332031 365.910156 115.164062 365.503906 114.976562 C 365.101562 114.785156 364.710938 114.570312 364.332031 114.332031 C 363.953125 114.09375 363.59375 113.835938 363.246094 113.554688 C 362.898438 113.273438 362.570312 112.972656 362.261719 112.652344 C 361.949219 112.328125 361.660156 111.992188 361.390625 111.636719 C 361.121094 111.28125 360.875 110.910156 360.648438 110.523438 C 360.421875 110.136719 360.222656 109.738281 360.046875 109.328125 C 359.601562 108.414062 359.570312 107.480469 359.945312 106.535156 C 363.6875 95.988281 366.800781 85.261719 369.925781 74.546875 C 370.523438 72.585938 370.890625 72.433594 372.65625 73.398438 C 376.554688 75.316406 380.242188 77.578125 383.714844 80.1875 C 384.566406 80.816406 385.332031 81.539062 386.011719 82.347656 C 386.695312 83.15625 387.273438 84.03125 387.753906 84.976562 C 388.230469 85.921875 388.59375 86.90625 388.839844 87.933594 C 389.089844 88.964844 389.21875 90.007812 389.222656 91.066406 Z M 389.222656 91.066406 " fill-opacity="1" fill-rule="nonzero"/><path fill="#763f0f" d="M 493.933594 107.75 C 494.785156 99.914062 494.183594 91.980469 495.480469 84.179688 C 495.882812 81.699219 496.53125 79.1875 497.0625 76.792969 C 497.273438 76.050781 497.714844 75.496094 498.394531 75.128906 C 498.96875 74.707031 499.578125 74.335938 500.21875 74.019531 C 500.859375 73.699219 501.523438 73.441406 502.207031 73.238281 C 502.894531 73.035156 503.59375 72.890625 504.304688 72.808594 C 505.011719 72.726562 505.726562 72.707031 506.4375 72.746094 C 507.152344 72.785156 507.859375 72.886719 508.554688 73.050781 C 509.25 73.214844 509.929688 73.433594 510.585938 73.714844 C 511.246094 73.992188 511.875 74.328125 512.476562 74.714844 C 513.074219 75.105469 513.636719 75.542969 514.164062 76.027344 C 515.847656 77.480469 517.289062 79.144531 518.488281 81.019531 C 519.050781 81.839844 519.488281 82.726562 519.800781 83.671875 C 520.113281 84.621094 520.285156 85.589844 520.324219 86.585938 C 520.363281 87.582031 520.261719 88.566406 520.023438 89.53125 C 519.785156 90.5 519.417969 91.414062 518.921875 92.28125 C 515.808594 98.203125 511.101562 102.824219 506.292969 107.351562 C 503.824219 109.851562 500.878906 111.515625 497.460938 112.339844 C 494.367188 112.988281 493.917969 112.589844 493.933594 109.445312 Z M 493.933594 107.75 " fill-opacity="1" fill-rule="nonzero"/><path fill="#763f0f" d="M 295.621094 287.648438 C 295.785156 278.765625 297.542969 270.210938 300.894531 261.984375 C 301.585938 260.359375 302.550781 258.917969 303.789062 257.65625 C 312.289062 248.910156 320.820312 240.160156 329.289062 231.359375 C 329.570312 231.015625 329.894531 230.714844 330.261719 230.457031 C 330.625 230.203125 331.019531 230 331.441406 229.855469 C 331.863281 229.707031 332.296875 229.621094 332.742188 229.59375 C 333.1875 229.566406 333.628906 229.601562 334.0625 229.695312 C 341.015625 230.761719 348.085938 231.210938 354.839844 233.339844 C 357.636719 234.125 360.234375 235.335938 362.636719 236.96875 C 365.039062 238.601562 367.121094 240.574219 368.878906 242.886719 C 369.433594 243.582031 369.929688 244.316406 370.375 245.085938 C 370.816406 245.859375 371.195312 246.660156 371.515625 247.488281 C 371.835938 248.320312 372.089844 249.167969 372.277344 250.039062 C 372.46875 250.90625 372.589844 251.785156 372.644531 252.671875 C 372.699219 253.5625 372.6875 254.449219 372.605469 255.332031 C 372.523438 256.21875 372.375 257.09375 372.160156 257.957031 C 371.945312 258.820312 371.667969 259.660156 371.324219 260.480469 C 370.980469 261.300781 370.574219 262.089844 370.109375 262.847656 C 364.601562 272.644531 358.464844 282.09375 350.265625 289.960938 C 346.59375 293.625 342.589844 296.878906 338.257812 299.730469 C 333.925781 302.578125 329.347656 304.960938 324.53125 306.878906 C 320.445312 308.714844 316.164062 309.503906 311.691406 309.242188 C 302.40625 308.210938 297.367188 303.167969 296.054688 293.855469 C 295.699219 291.800781 295.554688 289.734375 295.621094 287.648438 Z M 295.621094 287.648438 " fill-opacity="1" fill-rule="nonzero"/><path fill="#763f0f" d="M 557.144531 428.277344 C 557.144531 425.867188 557.296875 423.464844 557.59375 421.074219 C 557.9375 418.925781 558.757812 416.980469 560.058594 415.234375 C 569.046875 400.46875 578.933594 386.328125 589.714844 372.816406 C 592.355469 369.625 595.164062 366.589844 598.148438 363.71875 C 598.246094 363.582031 598.363281 363.457031 598.488281 363.347656 C 598.617188 363.238281 598.757812 363.144531 598.90625 363.066406 C 599.058594 362.988281 599.214844 362.929688 599.378906 362.890625 C 599.542969 362.851562 599.710938 362.832031 599.878906 362.832031 C 600.046875 362.832031 600.214844 362.851562 600.378906 362.890625 C 600.542969 362.929688 600.703125 362.988281 600.851562 363.066406 C 601.003906 363.144531 601.140625 363.238281 601.269531 363.347656 C 601.398438 363.457031 601.511719 363.582031 601.609375 363.71875 C 603.390625 365.273438 604.765625 367.132812 605.734375 369.292969 C 609.761719 379.503906 614.050781 389.617188 616.847656 400.296875 C 617.355469 402.121094 617.683594 403.976562 617.835938 405.859375 C 617.988281 407.746094 617.960938 409.628906 617.753906 411.511719 C 617.542969 413.390625 617.160156 415.234375 616.597656 417.042969 C 616.039062 418.847656 615.3125 420.585938 614.417969 422.253906 C 609.425781 431.953125 604.535156 441.617188 597.566406 450.066406 C 593.515625 455.367188 588.675781 459.800781 583.046875 463.375 C 582.640625 463.636719 582.21875 463.875 581.789062 464.09375 C 581.355469 464.3125 580.914062 464.503906 580.460938 464.671875 C 580.003906 464.839844 579.542969 464.984375 579.074219 465.105469 C 578.605469 465.222656 578.132812 465.316406 577.65625 465.386719 C 577.175781 465.453125 576.695312 465.496094 576.210938 465.511719 C 575.726562 465.527344 575.246094 465.515625 574.761719 465.480469 C 574.28125 465.441406 573.800781 465.378906 573.324219 465.292969 C 572.851562 465.203125 572.378906 465.089844 571.917969 464.949219 C 571.453125 464.8125 571 464.648438 570.554688 464.460938 C 570.109375 464.269531 569.675781 464.058594 569.253906 463.824219 C 568.828125 463.589844 568.421875 463.332031 568.027344 463.050781 C 567.632812 462.773438 567.253906 462.472656 566.890625 462.152344 C 566.527344 461.832031 566.183594 461.492188 565.859375 461.132812 C 565.535156 460.777344 565.226562 460.402344 564.941406 460.011719 C 564.65625 459.621094 564.394531 459.214844 564.152344 458.796875 C 563.914062 458.375 563.695312 457.945312 563.5 457.503906 C 560.023438 450.847656 557.144531 437.859375 557.144531 428.277344 Z M 557.144531 428.277344 " fill-opacity="1" fill-rule="nonzero"/><path fill="#763f0f" d="M 295.289062 490.007812 C 291.609375 490.078125 287.992188 489.628906 284.441406 488.660156 C 276.855469 486.878906 273.847656 481.488281 274.460938 473.90625 C 274.484375 473.382812 274.554688 472.867188 274.679688 472.359375 C 277.441406 461.894531 279.21875 451.097656 285.058594 441.652344 C 286.527344 439.011719 288.289062 436.589844 290.347656 434.378906 C 292.402344 432.167969 294.691406 430.230469 297.21875 428.574219 C 312.554688 419.378906 325.960938 431.570312 326.742188 444.878906 C 326.84375 450.382812 325.867188 455.6875 323.816406 460.796875 C 321.816406 467.195312 319.136719 473.292969 315.78125 479.09375 C 315.285156 479.988281 314.726562 480.84375 314.105469 481.660156 C 313.484375 482.476562 312.808594 483.242188 312.078125 483.960938 C 311.347656 484.679688 310.570312 485.339844 309.742188 485.945312 C 308.917969 486.554688 308.050781 487.097656 307.148438 487.578125 C 306.242188 488.058594 305.308594 488.472656 304.34375 488.820312 C 303.382812 489.167969 302.398438 489.445312 301.394531 489.648438 C 300.390625 489.855469 299.375 489.988281 298.355469 490.046875 C 297.332031 490.109375 296.308594 490.09375 295.289062 490.007812 Z M 295.289062 490.007812 " fill-opacity="1" fill-rule="nonzero"/><path fill="#763f0f" d="M 230.03125 364.066406 C 229.65625 366.792969 228.878906 369.398438 227.703125 371.886719 C 223.644531 382.648438 220.019531 393.511719 215.277344 404.089844 C 214.046875 407.328125 212.277344 410.238281 209.972656 412.824219 C 209.5625 413.273438 209.125 413.691406 208.652344 414.070312 C 208.179688 414.453125 207.679688 414.792969 207.152344 415.09375 C 206.625 415.394531 206.074219 415.652344 205.507812 415.863281 C 204.9375 416.078125 204.355469 416.246094 203.761719 416.363281 C 203.167969 416.484375 202.566406 416.558594 201.957031 416.582031 C 201.351562 416.605469 200.746094 416.582031 200.144531 416.511719 C 199.542969 416.441406 198.949219 416.320312 198.363281 416.152344 C 197.78125 415.988281 197.214844 415.773438 196.664062 415.519531 C 190.644531 412.917969 184.992188 409.675781 179.714844 405.785156 C 178.945312 405.257812 178.230469 404.664062 177.570312 404.003906 C 176.914062 403.34375 176.320312 402.632812 175.789062 401.863281 C 175.261719 401.09375 174.808594 400.285156 174.425781 399.433594 C 174.046875 398.582031 173.746094 397.703125 173.527344 396.796875 C 173.308594 395.890625 173.175781 394.972656 173.125 394.042969 C 173.074219 393.109375 173.105469 392.183594 173.226562 391.257812 C 173.34375 390.332031 173.546875 389.425781 173.832031 388.539062 C 174.117188 387.652344 174.480469 386.796875 174.921875 385.976562 C 177.964844 379.554688 181.875 373.597656 188.097656 370.074219 C 194.316406 366.546875 199.058594 360.890625 204.996094 356.914062 C 209.722656 353.753906 214.746094 351.160156 220.714844 352.175781 C 226.371094 353.074219 230.03125 357.597656 230.03125 364.066406 Z M 230.03125 364.066406 " fill-opacity="1" fill-rule="nonzero"/><path fill="#763f0f" d="M 334.230469 562.929688 C 333.828125 559.820312 336.207031 556.179688 338.671875 552.585938 C 338.816406 552.332031 339.007812 552.117188 339.242188 551.941406 C 339.476562 551.769531 339.734375 551.644531 340.019531 551.578125 C 340.304688 551.507812 340.589844 551.496094 340.878906 551.542969 C 341.167969 551.59375 341.433594 551.695312 341.679688 551.851562 C 350.855469 555.753906 360.230469 559.082031 369.808594 561.832031 C 371.136719 562.222656 372.246094 562.949219 373.136719 564.011719 C 377.902344 569.359375 381.769531 575.292969 384.730469 581.8125 C 386.371094 585.0625 387.070312 588.507812 386.828125 592.140625 C 386.703125 593.375 386.425781 594.570312 385.988281 595.726562 C 385.550781 596.886719 384.976562 597.972656 384.253906 598.980469 C 383.535156 599.988281 382.699219 600.886719 381.746094 601.675781 C 380.792969 602.464844 379.75 603.117188 378.625 603.636719 C 372.15625 607.160156 365.289062 609.558594 358.03125 610.839844 C 352.941406 611.601562 348.050781 611.105469 344.042969 607.394531 C 342.671875 606.007812 341.511719 604.457031 340.570312 602.746094 C 339.625 601.039062 338.929688 599.234375 338.488281 597.332031 C 336.746094 590.882812 335.683594 584.320312 335.292969 577.652344 C 334.828125 573.277344 334.628906 568.953125 334.230469 562.929688 Z M 334.230469 562.929688 " fill-opacity="1" fill-rule="nonzero"/><path fill="#763f0f" d="M 457.773438 415.203125 C 452.101562 415.351562 447.410156 412.890625 443.152344 409.445312 C 441.867188 408.429688 440.757812 407.25 439.824219 405.902344 C 439.273438 405.210938 438.820312 404.457031 438.46875 403.644531 C 438.121094 402.828125 437.882812 401.984375 437.753906 401.105469 C 437.628906 400.230469 437.621094 399.351562 437.730469 398.472656 C 437.835938 397.59375 438.058594 396.742188 438.394531 395.921875 C 440.957031 389.484375 443.847656 383.214844 446.328125 376.742188 C 447.390625 373.964844 448.472656 371.203125 449.40625 368.425781 C 449.625 367.785156 449.992188 367.246094 450.503906 366.800781 C 451.015625 366.359375 451.601562 366.074219 452.265625 365.949219 C 457.171875 364.285156 461.996094 365.5 466.820312 366.230469 C 471.03125 366.863281 475.136719 367.746094 479.414062 368.476562 C 480.0625 368.550781 480.652344 368.773438 481.191406 369.144531 C 481.726562 369.515625 482.144531 369.992188 482.441406 370.570312 C 483.90625 373.234375 485.46875 375.84375 486.765625 378.605469 C 487.003906 378.996094 487.140625 379.414062 487.183594 379.867188 C 487.222656 380.320312 487.164062 380.761719 487 381.183594 C 484.019531 388.707031 480.304688 395.851562 475.855469 402.609375 C 473.585938 406.09375 470.8125 409.113281 467.535156 411.675781 C 466.136719 412.761719 464.601562 413.609375 462.933594 414.210938 C 461.265625 414.8125 459.546875 415.144531 457.773438 415.203125 Z M 457.773438 415.203125 " fill-opacity="1" fill-rule="nonzero"/><path fill="#763f0f" d="M 166.972656 342.394531 C 166.878906 346.832031 166.324219 351.210938 165.308594 355.535156 C 163.292969 364 157.207031 368.441406 148.523438 367.644531 C 141.335938 366.96875 134.382812 365.304688 127.664062 362.652344 C 119.980469 359.609375 117.101562 353.988281 119.347656 346.019531 C 121.144531 339.882812 124.335938 334.691406 130.660156 332.0625 C 131.144531 331.863281 131.570312 331.574219 131.9375 331.199219 C 136.164062 326.574219 141.6875 325.609375 147.527344 325.84375 C 151.222656 325.839844 154.707031 326.703125 157.972656 328.4375 C 163.960938 331.796875 167.269531 336.65625 166.972656 342.394531 Z M 166.972656 342.394531 " fill-opacity="1" fill-rule="nonzero"/><path fill="#763f0f" d="M 277.105469 200.535156 C 277.105469 213.527344 268.222656 223.324219 255.78125 224.539062 C 253.1875 224.839844 250.589844 224.875 247.988281 224.644531 C 245.390625 224.417969 242.839844 223.925781 240.339844 223.171875 C 237.835938 222.421875 235.441406 221.421875 233.144531 220.179688 C 230.847656 218.933594 228.703125 217.472656 226.703125 215.789062 L 225.972656 215.15625 C 223.476562 212.84375 223.476562 212.613281 225.425781 209.882812 C 230.082031 203.363281 235.039062 197.058594 240.210938 190.9375 C 240.558594 190.417969 241.011719 190.027344 241.578125 189.765625 C 242.144531 189.5 242.734375 189.402344 243.355469 189.472656 C 246.816406 189.875 250.292969 190.238281 253.753906 190.65625 C 259.46875 191.5 265.203125 191.628906 270.953125 191.039062 C 271.414062 190.949219 271.875 190.945312 272.335938 191.023438 C 272.800781 191.101562 273.234375 191.257812 273.640625 191.492188 C 274.050781 191.722656 274.402344 192.019531 274.703125 192.378906 C 275.003906 192.742188 275.234375 193.140625 275.394531 193.582031 C 276.585938 195.746094 277.15625 198.066406 277.105469 200.535156 Z M 277.105469 200.535156 " fill-opacity="1" fill-rule="nonzero"/></svg>